<svg xmlns="http://www.w3.org/2000/svg" xmlns:xlink="http://www.w3.org/1999/xlink" width="500" zoomAndPan="magnify" viewBox="0 0 375 374.999991" height="500" preserveAspectRatio="xMidYMid meet" version="1.0"><defs><g/></defs><g fill="#ff00ff" fill-opacity="1"><g transform="translate(54.76922, 187.600735)"><g><path d="M 2.886719 -42.585938 L 49.082031 -42.585938 L 49.082031 -50.527344 L 2.886719 -50.527344 Z M 35.007812 0 L 49.082031 0 L 49.082031 -7.941406 L 35.007812 -7.941406 C 32.265625 -7.941406 29.953125 -10.175781 29.953125 -12.992188 L 29.953125 -37.535156 L 22.085938 -37.535156 L 22.085938 -12.992188 C 22.085938 -5.773438 27.789062 0 35.007812 0 Z M 2.886719 0 L 22.015625 0 L 22.015625 -7.941406 L 2.886719 -7.941406 Z M 2.886719 0 "/></g></g></g><g fill="#ff00ff" fill-opacity="1"><g transform="translate(106.738205, 187.600735)"><g><path d="M 15.878906 0 L 49.082031 0 L 49.082031 -7.941406 L 15.878906 -7.941406 C 13.066406 -7.941406 10.828125 -10.175781 10.828125 -12.992188 L 10.828125 -50.527344 L 2.886719 -50.527344 L 2.886719 -12.992188 C 2.886719 -5.703125 8.589844 0 15.878906 0 Z M 15.878906 0 "/></g></g></g><g fill="#ff00ff" fill-opacity="1"><g transform="translate(158.70719, 187.600735)"><g><path d="M 24.253906 0 L 32.121094 0 L 32.121094 -37.535156 C 32.121094 -44.824219 26.417969 -50.527344 19.128906 -50.527344 L 2.886719 -50.527344 L 2.886719 -42.585938 L 19.128906 -42.585938 C 21.941406 -42.585938 24.253906 -40.347656 24.253906 -37.535156 Z M 32.121094 -42.585938 L 53.414062 -42.585938 L 53.414062 -50.527344 L 32.121094 -50.527344 Z M 32.121094 -42.585938 "/></g></g></g><g fill="#ff00ff" fill-opacity="1"><g transform="translate(215.006923, 187.600735)"><g><path d="M 45.472656 -7.941406 L 53.414062 -7.941406 L 53.414062 -37.535156 C 53.414062 -45.183594 48 -50.527344 40.421875 -50.527344 L 10.828125 -50.527344 L 10.828125 -42.585938 L 40.421875 -42.585938 C 43.164062 -42.585938 45.472656 -40.347656 45.472656 -37.535156 Z M 15.878906 0 L 45.472656 0 L 45.472656 -7.941406 L 15.878906 -7.941406 C 13.066406 -7.941406 10.828125 -10.175781 10.828125 -12.992188 L 10.828125 -42.585938 L 2.886719 -42.585938 L 2.886719 -12.992188 C 2.886719 -5.339844 8.230469 0 15.878906 0 Z M 15.878906 0 "/></g></g></g><g fill="#ff00ff" fill-opacity="1"><g transform="translate(271.306657, 187.600735)"><g><path d="M 45.472656 0 L 45.472656 -7.941406 C 40.058594 -7.941406 35.441406 -18.910156 31.757812 -26.851562 C 26.417969 -39.265625 21.078125 -50.527344 10.828125 -50.527344 L 10.828125 -42.585938 C 16.242188 -42.585938 20.859375 -31.832031 24.46875 -23.820312 C 29.738281 -11.980469 35.007812 0 45.472656 0 Z M 45.472656 -7.941406 L 53.414062 -7.941406 L 53.414062 -50.527344 L 45.472656 -50.527344 Z M 2.886719 0 L 10.828125 0 L 10.828125 -42.585938 L 2.886719 -42.585938 Z M 2.886719 0 "/></g></g></g><g fill="#00ffff" fill-opacity="1"><g transform="translate(47.389571, 191.200032)"><g><path d="M 2.886719 -42.585938 L 49.082031 -42.585938 L 49.082031 -50.527344 L 2.886719 -50.527344 Z M 35.007812 0 L 49.082031 0 L 49.082031 -7.941406 L 35.007812 -7.941406 C 32.265625 -7.941406 29.953125 -10.175781 29.953125 -12.992188 L 29.953125 -37.535156 L 22.085938 -37.535156 L 22.085938 -12.992188 C 22.085938 -5.773438 27.789062 0 35.007812 0 Z M 2.886719 0 L 22.015625 0 L 22.015625 -7.941406 L 2.886719 -7.941406 Z M 2.886719 0 "/></g></g></g><g fill="#00ffff" fill-opacity="1"><g transform="translate(99.358556, 191.200032)"><g><path d="M 15.878906 0 L 49.082031 0 L 49.082031 -7.941406 L 15.878906 -7.941406 C 13.066406 -7.941406 10.828125 -10.175781 10.828125 -12.992188 L 10.828125 -50.527344 L 2.886719 -50.527344 L 2.886719 -12.992188 C 2.886719 -5.703125 8.589844 0 15.878906 0 Z M 15.878906 0 "/></g></g></g><g fill="#00ffff" fill-opacity="1"><g transform="translate(151.327541, 191.200032)"><g><path d="M 24.253906 0 L 32.121094 0 L 32.121094 -37.535156 C 32.121094 -44.824219 26.417969 -50.527344 19.128906 -50.527344 L 2.886719 -50.527344 L 2.886719 -42.585938 L 19.128906 -42.585938 C 21.941406 -42.585938 24.253906 -40.347656 24.253906 -37.535156 Z M 32.121094 -42.585938 L 53.414062 -42.585938 L 53.414062 -50.527344 L 32.121094 -50.527344 Z M 32.121094 -42.585938 "/></g></g></g><g fill="#00ffff" fill-opacity="1"><g transform="translate(207.627274, 191.200032)"><g><path d="M 45.472656 -7.941406 L 53.414062 -7.941406 L 53.414062 -37.535156 C 53.414062 -45.183594 48 -50.527344 40.421875 -50.527344 L 10.828125 -50.527344 L 10.828125 -42.585938 L 40.421875 -42.585938 C 43.164062 -42.585938 45.472656 -40.347656 45.472656 -37.535156 Z M 15.878906 0 L 45.472656 0 L 45.472656 -7.941406 L 15.878906 -7.941406 C 13.066406 -7.941406 10.828125 -10.175781 10.828125 -12.992188 L 10.828125 -42.585938 L 2.886719 -42.585938 L 2.886719 -12.992188 C 2.886719 -5.339844 8.230469 0 15.878906 0 Z M 15.878906 0 "/></g></g></g><g fill="#00ffff" fill-opacity="1"><g transform="translate(263.927008, 191.200032)"><g><path d="M 45.472656 0 L 45.472656 -7.941406 C 40.058594 -7.941406 35.441406 -18.910156 31.757812 -26.851562 C 26.417969 -39.265625 21.078125 -50.527344 10.828125 -50.527344 L 10.828125 -42.585938 C 16.242188 -42.585938 20.859375 -31.832031 24.46875 -23.820312 C 29.738281 -11.980469 35.007812 0 45.472656 0 Z M 45.472656 -7.941406 L 53.414062 -7.941406 L 53.414062 -50.527344 L 45.472656 -50.527344 Z M 2.886719 0 L 10.828125 0 L 10.828125 -42.585938 L 2.886719 -42.585938 Z M 2.886719 0 "/></g></g></g><g fill="#f652a0" fill-opacity="1"><g transform="translate(51.079395, 189.400384)"><g><path d="M 2.886719 -42.585938 L 49.082031 -42.585938 L 49.082031 -50.527344 L 2.886719 -50.527344 Z M 35.007812 0 L 49.082031 0 L 49.082031 -7.941406 L 35.007812 -7.941406 C 32.265625 -7.941406 29.953125 -10.175781 29.953125 -12.992188 L 29.953125 -37.535156 L 22.085938 -37.535156 L 22.085938 -12.992188 C 22.085938 -5.773438 27.789062 0 35.007812 0 Z M 2.886719 0 L 22.015625 0 L 22.015625 -7.941406 L 2.886719 -7.941406 Z M 2.886719 0 "/></g></g></g><g fill="#f652a0" fill-opacity="1"><g transform="translate(103.04838, 189.400384)"><g><path d="M 15.878906 0 L 49.082031 0 L 49.082031 -7.941406 L 15.878906 -7.941406 C 13.066406 -7.941406 10.828125 -10.175781 10.828125 -12.992188 L 10.828125 -50.527344 L 2.886719 -50.527344 L 2.886719 -12.992188 C 2.886719 -5.703125 8.589844 0 15.878906 0 Z M 15.878906 0 "/></g></g></g><g fill="#f652a0" fill-opacity="1"><g transform="translate(155.017366, 189.400384)"><g><path d="M 24.253906 0 L 32.121094 0 L 32.121094 -37.535156 C 32.121094 -44.824219 26.417969 -50.527344 19.128906 -50.527344 L 2.886719 -50.527344 L 2.886719 -42.585938 L 19.128906 -42.585938 C 21.941406 -42.585938 24.253906 -40.347656 24.253906 -37.535156 Z M 32.121094 -42.585938 L 53.414062 -42.585938 L 53.414062 -50.527344 L 32.121094 -50.527344 Z M 32.121094 -42.585938 "/></g></g></g><g fill="#f652a0" fill-opacity="1"><g transform="translate(211.317099, 189.400384)"><g><path d="M 45.472656 -7.941406 L 53.414062 -7.941406 L 53.414062 -37.535156 C 53.414062 -45.183594 48 -50.527344 40.421875 -50.527344 L 10.828125 -50.527344 L 10.828125 -42.585938 L 40.421875 -42.585938 C 43.164062 -42.585938 45.472656 -40.347656 45.472656 -37.535156 Z M 15.878906 0 L 45.472656 0 L 45.472656 -7.941406 L 15.878906 -7.941406 C 13.066406 -7.941406 10.828125 -10.175781 10.828125 -12.992188 L 10.828125 -42.585938 L 2.886719 -42.585938 L 2.886719 -12.992188 C 2.886719 -5.339844 8.230469 0 15.878906 0 Z M 15.878906 0 "/></g></g></g><g fill="#f652a0" fill-opacity="1"><g transform="translate(267.616832, 189.400384)"><g><path d="M 45.472656 0 L 45.472656 -7.941406 C 40.058594 -7.941406 35.441406 -18.910156 31.757812 -26.851562 C 26.417969 -39.265625 21.078125 -50.527344 10.828125 -50.527344 L 10.828125 -42.585938 C 16.242188 -42.585938 20.859375 -31.832031 24.46875 -23.820312 C 29.738281 -11.980469 35.007812 0 45.472656 0 Z M 45.472656 -7.941406 L 53.414062 -7.941406 L 53.414062 -50.527344 L 45.472656 -50.527344 Z M 2.886719 0 L 10.828125 0 L 10.828125 -42.585938 L 2.886719 -42.585938 Z M 2.886719 0 "/></g></g></g><g fill="#ff00ff" fill-opacity="1"><g transform="translate(17.236559, 241.571751)"><g><path d="M 45.472656 0 L 53.414062 0 L 53.414062 -37.535156 C 53.414062 -44.824219 47.640625 -50.527344 40.347656 -50.527344 L 10.753906 -50.527344 L 10.753906 -42.585938 L 40.347656 -42.585938 C 43.164062 -42.585938 45.472656 -40.347656 45.472656 -37.535156 Z M 2.886719 0 L 10.753906 0 L 10.753906 -16.242188 L 40.421875 -16.242188 L 40.421875 -24.179688 L 10.753906 -24.179688 L 10.753906 -42.585938 L 2.886719 -42.585938 Z M 2.886719 0 "/></g></g></g><g fill="#ff00ff" fill-opacity="1"><g transform="translate(73.536292, 241.571751)"><g><path d="M 45.472656 0 L 45.472656 -7.941406 C 40.058594 -7.941406 35.441406 -18.910156 31.757812 -26.851562 C 26.417969 -39.265625 21.078125 -50.527344 10.828125 -50.527344 L 10.828125 -42.585938 C 16.242188 -42.585938 20.859375 -31.832031 24.46875 -23.820312 C 29.738281 -11.980469 35.007812 0 45.472656 0 Z M 45.472656 -7.941406 L 53.414062 -7.941406 L 53.414062 -50.527344 L 45.472656 -50.527344 Z M 2.886719 0 L 10.828125 0 L 10.828125 -42.585938 L 2.886719 -42.585938 Z M 2.886719 0 "/></g></g></g><g fill="#ff00ff" fill-opacity="1"><g transform="translate(129.836026, 241.571751)"><g><path d="M 45.472656 -7.941406 L 53.414062 -7.941406 L 53.414062 -37.535156 C 53.414062 -44.824219 47.710938 -50.527344 40.421875 -50.527344 L 10.828125 -50.527344 L 10.828125 -42.585938 L 40.421875 -42.585938 C 43.234375 -42.585938 45.472656 -40.347656 45.472656 -37.535156 Z M 2.886719 0 L 45.472656 0 L 45.472656 -7.941406 L 10.828125 -7.941406 L 10.828125 -42.585938 L 2.886719 -42.585938 Z M 2.886719 0 "/></g></g></g><g fill="#ff00ff" fill-opacity="1"><g transform="translate(186.135759, 241.571751)"><g><path d="M 45.472656 0 L 53.414062 0 L 53.414062 -10.105469 C 53.414062 -14.003906 51.898438 -17.539062 49.515625 -20.210938 C 51.898438 -22.882812 53.414062 -26.417969 53.414062 -30.316406 L 53.414062 -37.535156 C 53.414062 -44.824219 47.710938 -50.527344 40.421875 -50.527344 L 10.828125 -50.527344 L 10.828125 -42.585938 L 40.421875 -42.585938 C 43.234375 -42.585938 45.472656 -40.347656 45.472656 -37.535156 L 45.472656 -30.316406 C 45.472656 -27.5 43.234375 -24.179688 40.421875 -24.179688 L 15.878906 -24.179688 L 15.878906 -16.242188 L 40.421875 -16.242188 C 43.234375 -16.242188 45.472656 -12.921875 45.472656 -10.105469 Z M 2.886719 0 L 10.828125 0 L 10.828125 -42.585938 L 2.886719 -42.585938 Z M 2.886719 0 "/></g></g></g><g fill="#ff00ff" fill-opacity="1"><g transform="translate(242.435492, 241.571751)"><g><path d="M 10.828125 -42.585938 L 53.414062 -42.585938 L 53.414062 -50.527344 L 10.828125 -50.527344 Z M 15.878906 0 L 53.414062 0 L 53.414062 -7.941406 L 15.878906 -7.941406 C 13.136719 -7.941406 10.828125 -10.175781 10.828125 -12.992188 L 10.828125 -42.585938 L 2.886719 -42.585938 L 2.886719 -12.992188 C 2.886719 -5.773438 8.660156 0 15.878906 0 Z M 15.808594 -21.292969 L 48.359375 -21.292969 L 48.359375 -29.234375 L 15.808594 -29.234375 Z M 15.808594 -21.292969 "/></g></g></g><g fill="#ff00ff" fill-opacity="1"><g transform="translate(298.735225, 241.571751)"><g><path d="M 2.886719 -7.941406 L 10.828125 -7.941406 L 10.828125 -50.527344 L 2.886719 -50.527344 Z M 55.578125 -7.941406 L 63.519531 -7.941406 L 63.519531 -50.527344 L 55.578125 -50.527344 Z M 10.828125 0 C 22.738281 0 26.492188 -10.25 29.449219 -22.519531 C 30.171875 -25.625 31.398438 -31.328125 33.203125 -32.335938 C 34.933594 -31.328125 36.164062 -25.914062 36.882812 -22.59375 C 39.769531 -10.320312 43.378906 0 55.578125 0 L 55.578125 -7.941406 C 48.578125 -7.941406 46.628906 -15.808594 44.609375 -24.46875 C 42.730469 -32.554688 40.566406 -40.421875 33.203125 -40.421875 C 25.839844 -40.421875 23.890625 -32.84375 21.726562 -24.324219 C 19.707031 -15.878906 17.613281 -7.941406 10.828125 -7.941406 Z M 10.828125 0 "/></g></g></g><g fill="#00ffff" fill-opacity="1"><g transform="translate(9.85691, 245.171047)"><g><path d="M 45.472656 0 L 53.414062 0 L 53.414062 -37.535156 C 53.414062 -44.824219 47.640625 -50.527344 40.347656 -50.527344 L 10.753906 -50.527344 L 10.753906 -42.585938 L 40.347656 -42.585938 C 43.164062 -42.585938 45.472656 -40.347656 45.472656 -37.535156 Z M 2.886719 0 L 10.753906 0 L 10.753906 -16.242188 L 40.421875 -16.242188 L 40.421875 -24.179688 L 10.753906 -24.179688 L 10.753906 -42.585938 L 2.886719 -42.585938 Z M 2.886719 0 "/></g></g></g><g fill="#00ffff" fill-opacity="1"><g transform="translate(66.156643, 245.171047)"><g><path d="M 45.472656 0 L 45.472656 -7.941406 C 40.058594 -7.941406 35.441406 -18.910156 31.757812 -26.851562 C 26.417969 -39.265625 21.078125 -50.527344 10.828125 -50.527344 L 10.828125 -42.585938 C 16.242188 -42.585938 20.859375 -31.832031 24.46875 -23.820312 C 29.738281 -11.980469 35.007812 0 45.472656 0 Z M 45.472656 -7.941406 L 53.414062 -7.941406 L 53.414062 -50.527344 L 45.472656 -50.527344 Z M 2.886719 0 L 10.828125 0 L 10.828125 -42.585938 L 2.886719 -42.585938 Z M 2.886719 0 "/></g></g></g><g fill="#00ffff" fill-opacity="1"><g transform="translate(122.456376, 245.171047)"><g><path d="M 45.472656 -7.941406 L 53.414062 -7.941406 L 53.414062 -37.535156 C 53.414062 -44.824219 47.710938 -50.527344 40.421875 -50.527344 L 10.828125 -50.527344 L 10.828125 -42.585938 L 40.421875 -42.585938 C 43.234375 -42.585938 45.472656 -40.347656 45.472656 -37.535156 Z M 2.886719 0 L 45.472656 0 L 45.472656 -7.941406 L 10.828125 -7.941406 L 10.828125 -42.585938 L 2.886719 -42.585938 Z M 2.886719 0 "/></g></g></g><g fill="#00ffff" fill-opacity="1"><g transform="translate(178.75611, 245.171047)"><g><path d="M 45.472656 0 L 53.414062 0 L 53.414062 -10.105469 C 53.414062 -14.003906 51.898438 -17.539062 49.515625 -20.210938 C 51.898438 -22.882812 53.414062 -26.417969 53.414062 -30.316406 L 53.414062 -37.535156 C 53.414062 -44.824219 47.710938 -50.527344 40.421875 -50.527344 L 10.828125 -50.527344 L 10.828125 -42.585938 L 40.421875 -42.585938 C 43.234375 -42.585938 45.472656 -40.347656 45.472656 -37.535156 L 45.472656 -30.316406 C 45.472656 -27.5 43.234375 -24.179688 40.421875 -24.179688 L 15.878906 -24.179688 L 15.878906 -16.242188 L 40.421875 -16.242188 C 43.234375 -16.242188 45.472656 -12.921875 45.472656 -10.105469 Z M 2.886719 0 L 10.828125 0 L 10.828125 -42.585938 L 2.886719 -42.585938 Z M 2.886719 0 "/></g></g></g><g fill="#00ffff" fill-opacity="1"><g transform="translate(235.055843, 245.171047)"><g><path d="M 10.828125 -42.585938 L 53.414062 -42.585938 L 53.414062 -50.527344 L 10.828125 -50.527344 Z M 15.878906 0 L 53.414062 0 L 53.414062 -7.941406 L 15.878906 -7.941406 C 13.136719 -7.941406 10.828125 -10.175781 10.828125 -12.992188 L 10.828125 -42.585938 L 2.886719 -42.585938 L 2.886719 -12.992188 C 2.886719 -5.773438 8.660156 0 15.878906 0 Z M 15.808594 -21.292969 L 48.359375 -21.292969 L 48.359375 -29.234375 L 15.808594 -29.234375 Z M 15.808594 -21.292969 "/></g></g></g><g fill="#00ffff" fill-opacity="1"><g transform="translate(291.355576, 245.171047)"><g><path d="M 2.886719 -7.941406 L 10.828125 -7.941406 L 10.828125 -50.527344 L 2.886719 -50.527344 Z M 55.578125 -7.941406 L 63.519531 -7.941406 L 63.519531 -50.527344 L 55.578125 -50.527344 Z M 10.828125 0 C 22.738281 0 26.492188 -10.25 29.449219 -22.519531 C 30.171875 -25.625 31.398438 -31.328125 33.203125 -32.335938 C 34.933594 -31.328125 36.164062 -25.914062 36.882812 -22.59375 C 39.769531 -10.320312 43.378906 0 55.578125 0 L 55.578125 -7.941406 C 48.578125 -7.941406 46.628906 -15.808594 44.609375 -24.46875 C 42.730469 -32.554688 40.566406 -40.421875 33.203125 -40.421875 C 25.839844 -40.421875 23.890625 -32.84375 21.726562 -24.324219 C 19.707031 -15.878906 17.613281 -7.941406 10.828125 -7.941406 Z M 10.828125 0 "/></g></g></g><g fill="#f652a0" fill-opacity="1"><g transform="translate(13.546735, 243.3714)"><g><path d="M 45.472656 0 L 53.414062 0 L 53.414062 -37.535156 C 53.414062 -44.824219 47.640625 -50.527344 40.347656 -50.527344 L 10.753906 -50.527344 L 10.753906 -42.585938 L 40.347656 -42.585938 C 43.164062 -42.585938 45.472656 -40.347656 45.472656 -37.535156 Z M 2.886719 0 L 10.753906 0 L 10.753906 -16.242188 L 40.421875 -16.242188 L 40.421875 -24.179688 L 10.753906 -24.179688 L 10.753906 -42.585938 L 2.886719 -42.585938 Z M 2.886719 0 "/></g></g></g><g fill="#f652a0" fill-opacity="1"><g transform="translate(69.846468, 243.3714)"><g><path d="M 45.472656 0 L 45.472656 -7.941406 C 40.058594 -7.941406 35.441406 -18.910156 31.757812 -26.851562 C 26.417969 -39.265625 21.078125 -50.527344 10.828125 -50.527344 L 10.828125 -42.585938 C 16.242188 -42.585938 20.859375 -31.832031 24.46875 -23.820312 C 29.738281 -11.980469 35.007812 0 45.472656 0 Z M 45.472656 -7.941406 L 53.414062 -7.941406 L 53.414062 -50.527344 L 45.472656 -50.527344 Z M 2.886719 0 L 10.828125 0 L 10.828125 -42.585938 L 2.886719 -42.585938 Z M 2.886719 0 "/></g></g></g><g fill="#f652a0" fill-opacity="1"><g transform="translate(126.146201, 243.3714)"><g><path d="M 45.472656 -7.941406 L 53.414062 -7.941406 L 53.414062 -37.535156 C 53.414062 -44.824219 47.710938 -50.527344 40.421875 -50.527344 L 10.828125 -50.527344 L 10.828125 -42.585938 L 40.421875 -42.585938 C 43.234375 -42.585938 45.472656 -40.347656 45.472656 -37.535156 Z M 2.886719 0 L 45.472656 0 L 45.472656 -7.941406 L 10.828125 -7.941406 L 10.828125 -42.585938 L 2.886719 -42.585938 Z M 2.886719 0 "/></g></g></g><g fill="#f652a0" fill-opacity="1"><g transform="translate(182.445934, 243.3714)"><g><path d="M 45.472656 0 L 53.414062 0 L 53.414062 -10.105469 C 53.414062 -14.003906 51.898438 -17.539062 49.515625 -20.210938 C 51.898438 -22.882812 53.414062 -26.417969 53.414062 -30.316406 L 53.414062 -37.535156 C 53.414062 -44.824219 47.710938 -50.527344 40.421875 -50.527344 L 10.828125 -50.527344 L 10.828125 -42.585938 L 40.421875 -42.585938 C 43.234375 -42.585938 45.472656 -40.347656 45.472656 -37.535156 L 45.472656 -30.316406 C 45.472656 -27.5 43.234375 -24.179688 40.421875 -24.179688 L 15.878906 -24.179688 L 15.878906 -16.242188 L 40.421875 -16.242188 C 43.234375 -16.242188 45.472656 -12.921875 45.472656 -10.105469 Z M 2.886719 0 L 10.828125 0 L 10.828125 -42.585938 L 2.886719 -42.585938 Z M 2.886719 0 "/></g></g></g><g fill="#f652a0" fill-opacity="1"><g transform="translate(238.745667, 243.3714)"><g><path d="M 10.828125 -42.585938 L 53.414062 -42.585938 L 53.414062 -50.527344 L 10.828125 -50.527344 Z M 15.878906 0 L 53.414062 0 L 53.414062 -7.941406 L 15.878906 -7.941406 C 13.136719 -7.941406 10.828125 -10.175781 10.828125 -12.992188 L 10.828125 -42.585938 L 2.886719 -42.585938 L 2.886719 -12.992188 C 2.886719 -5.773438 8.660156 0 15.878906 0 Z M 15.808594 -21.292969 L 48.359375 -21.292969 L 48.359375 -29.234375 L 15.808594 -29.234375 Z M 15.808594 -21.292969 "/></g></g></g><g fill="#f652a0" fill-opacity="1"><g transform="translate(295.045401, 243.3714)"><g><path d="M 2.886719 -7.941406 L 10.828125 -7.941406 L 10.828125 -50.527344 L 2.886719 -50.527344 Z M 55.578125 -7.941406 L 63.519531 -7.941406 L 63.519531 -50.527344 L 55.578125 -50.527344 Z M 10.828125 0 C 22.738281 0 26.492188 -10.25 29.449219 -22.519531 C 30.171875 -25.625 31.398438 -31.328125 33.203125 -32.335938 C 34.933594 -31.328125 36.164062 -25.914062 36.882812 -22.59375 C 39.769531 -10.320312 43.378906 0 55.578125 0 L 55.578125 -7.941406 C 48.578125 -7.941406 46.628906 -15.808594 44.609375 -24.46875 C 42.730469 -32.554688 40.566406 -40.421875 33.203125 -40.421875 C 25.839844 -40.421875 23.890625 -32.84375 21.726562 -24.324219 C 19.707031 -15.878906 17.613281 -7.941406 10.828125 -7.941406 Z M 10.828125 0 "/></g></g></g></svg>