<svg xmlns="http://www.w3.org/2000/svg" xmlns:xlink="http://www.w3.org/1999/xlink" width="500" zoomAndPan="magnify" viewBox="0 0 375 374.999991" height="500" preserveAspectRatio="xMidYMid meet" version="1.0"><defs><g/></defs><g fill="#ff00ff" fill-opacity="1"><g transform="translate(137.050074, 187.600706)"><g><path d="M 2.886719 -42.585938 L 49.082031 -42.585938 L 49.082031 -50.527344 L 2.886719 -50.527344 Z M 35.007812 0 L 49.082031 0 L 49.082031 -7.941406 L 35.007812 -7.941406 C 32.265625 -7.941406 29.953125 -10.175781 29.953125 -12.992188 L 29.953125 -37.535156 L 22.085938 -37.535156 L 22.085938 -12.992188 C 22.085938 -5.773438 27.789062 0 35.007812 0 Z M 2.886719 0 L 22.015625 0 L 22.015625 -7.941406 L 2.886719 -7.941406 Z M 2.886719 0 "/></g></g></g><g fill="#ff00ff" fill-opacity="1"><g transform="translate(189.01906, 187.600706)"><g><path d="M 45.472656 0 L 53.414062 0 L 53.414062 -37.535156 C 53.414062 -44.824219 47.640625 -50.527344 40.347656 -50.527344 L 10.753906 -50.527344 L 10.753906 -42.585938 L 40.347656 -42.585938 C 43.164062 -42.585938 45.472656 -40.347656 45.472656 -37.535156 Z M 2.886719 0 L 10.753906 0 L 10.753906 -16.242188 L 40.421875 -16.242188 L 40.421875 -24.179688 L 10.753906 -24.179688 L 10.753906 -42.585938 L 2.886719 -42.585938 Z M 2.886719 0 "/></g></g></g><g fill="#00ffff" fill-opacity="1"><g transform="translate(129.670425, 191.200003)"><g><path d="M 2.886719 -42.585938 L 49.082031 -42.585938 L 49.082031 -50.527344 L 2.886719 -50.527344 Z M 35.007812 0 L 49.082031 0 L 49.082031 -7.941406 L 35.007812 -7.941406 C 32.265625 -7.941406 29.953125 -10.175781 29.953125 -12.992188 L 29.953125 -37.535156 L 22.085938 -37.535156 L 22.085938 -12.992188 C 22.085938 -5.773438 27.789062 0 35.007812 0 Z M 2.886719 0 L 22.015625 0 L 22.015625 -7.941406 L 2.886719 -7.941406 Z M 2.886719 0 "/></g></g></g><g fill="#00ffff" fill-opacity="1"><g transform="translate(181.63941, 191.200003)"><g><path d="M 45.472656 0 L 53.414062 0 L 53.414062 -37.535156 C 53.414062 -44.824219 47.640625 -50.527344 40.347656 -50.527344 L 10.753906 -50.527344 L 10.753906 -42.585938 L 40.347656 -42.585938 C 43.164062 -42.585938 45.472656 -40.347656 45.472656 -37.535156 Z M 2.886719 0 L 10.753906 0 L 10.753906 -16.242188 L 40.421875 -16.242188 L 40.421875 -24.179688 L 10.753906 -24.179688 L 10.753906 -42.585938 L 2.886719 -42.585938 Z M 2.886719 0 "/></g></g></g><g fill="#f652a0" fill-opacity="1"><g transform="translate(133.36025, 189.400356)"><g><path d="M 2.886719 -42.585938 L 49.082031 -42.585938 L 49.082031 -50.527344 L 2.886719 -50.527344 Z M 35.007812 0 L 49.082031 0 L 49.082031 -7.941406 L 35.007812 -7.941406 C 32.265625 -7.941406 29.953125 -10.175781 29.953125 -12.992188 L 29.953125 -37.535156 L 22.085938 -37.535156 L 22.085938 -12.992188 C 22.085938 -5.773438 27.789062 0 35.007812 0 Z M 2.886719 0 L 22.015625 0 L 22.015625 -7.941406 L 2.886719 -7.941406 Z M 2.886719 0 "/></g></g></g><g fill="#f652a0" fill-opacity="1"><g transform="translate(185.329235, 189.400356)"><g><path d="M 45.472656 0 L 53.414062 0 L 53.414062 -37.535156 C 53.414062 -44.824219 47.640625 -50.527344 40.347656 -50.527344 L 10.753906 -50.527344 L 10.753906 -42.585938 L 40.347656 -42.585938 C 43.164062 -42.585938 45.472656 -40.347656 45.472656 -37.535156 Z M 2.886719 0 L 10.753906 0 L 10.753906 -16.242188 L 40.421875 -16.242188 L 40.421875 -24.179688 L 10.753906 -24.179688 L 10.753906 -42.585938 L 2.886719 -42.585938 Z M 2.886719 0 "/></g></g></g></svg>