<svg width="32" height="32" viewBox="0 0 32 32" fill="none" xmlns="http://www.w3.org/2000/svg">
  <defs>
    <!-- Glitch gradient -->
    <linearGradient id="glitchGradient" x1="0%" y1="0%" x2="100%" y2="100%">
      <stop offset="0%" style="stop-color:#ff0080;stop-opacity:1" />
      <stop offset="50%" style="stop-color:#00ffff;stop-opacity:1" />
      <stop offset="100%" style="stop-color:#8000ff;stop-opacity:1" />
    </linearGradient>
    
    <!-- Neon glow filter -->
    <filter id="neonGlow" x="-50%" y="-50%" width="200%" height="200%">
      <feGaussianBlur stdDeviation="2" result="coloredBlur"/>
      <feMerge> 
        <feMergeNode in="coloredBlur"/>
        <feMergeNode in="SourceGraphic"/>
      </feMerge>
    </filter>
  </defs>
  
  <!-- Background with rounded corners -->
  <rect width="32" height="32" rx="6" fill="url(#glitchGradient)" filter="url(#neonGlow)"/>
  
  <!-- Letter 'G' -->
  <path d="M20 10H12C10.3431 10 9 11.3431 9 13V19C9 20.6569 10.3431 22 12 22H20C21.6569 22 23 20.6569 23 19V16H18V18H21V19C21 19.5523 20.5523 20 20 20H12C11.4477 20 11 19.5523 11 19V13C11 12.4477 11.4477 12 12 12H20V10Z" fill="white"/>
  
  <!-- Glitch effect lines -->
  <rect x="9" y="14" width="14" height="1" fill="#ff0080" opacity="0.6"/>
  <rect x="11" y="17" width="10" height="1" fill="#00ffff" opacity="0.4"/>
</svg>