<svg width="169" height="20" viewBox="0 0 169 20" fill="none" xmlns="http://www.w3.org/2000/svg">
<g clip-path="url(#clip0_501_4614)">
<path d="M3.58974 0.0444336L9.9911 7.89522L16.3764 0.0444336H19.9341V19.9999H15.9615V5.96502H15.8476L9.9911 13.2371L4.0901 5.96502H3.97614V19.9999H0V0.0444336H3.58974Z" fill="#000000"/>
<path d="M36.7076 0.0854492L36.6916 3.26387H25.4897V8.04485H34.2753V11.2304H25.4897V16.8554L36.672 16.8038L36.6649 20L21.526 19.9893L21.5189 0.0854492H36.7058H36.7076Z" fill="#000000"/>
<path d="M47.4911 0.0390625C49.5709 0.0390625 51.4209 0.462852 53.0431 1.31221C54.6652 2.16157 55.9241 3.35281 56.8198 4.88949C57.7155 6.42617 58.1642 8.1516 58.1642 10.0693C58.1642 11.9871 57.7137 13.7588 56.8127 15.2705C55.9117 16.7823 54.6029 17.9255 52.9434 18.7552C51.2838 19.585 49.3803 19.9999 47.2347 19.9999H38.2657L38.2924 0.0408431H47.4911V0.0390625ZM47.0637 16.7752C49.2005 16.7752 50.942 16.1609 52.2347 14.8788C53.5274 13.5968 54.1738 12.1188 54.1738 10.0408C54.1738 7.96285 53.5221 6.40836 52.2204 5.15836C50.9188 3.90836 49.1667 3.28337 46.9623 3.28337H42.2739L42.2472 16.7752H47.0655H47.0637Z" fill="#000000"/>
<path d="M63.7571 0.067627V20H59.756V0.067627H63.7571Z" fill="#000000"/>
<path d="M95.6731 0.067627V20H91.672V0.067627H95.6731Z" fill="#000000"/>
<path d="M111.66 0.067627V20H107.658V0.067627H111.66Z" fill="#000000"/>
<path d="M76.4512 0.0498047L85.2796 19.9999H81.2019L79.1275 15.2688H71.3301L69.3981 19.9999H65.349L73.3369 0.0498047H76.4512ZM71.7432 12.0601H78.0876L74.9181 4.32687L71.7432 12.0601Z" fill="#000000"/>
<path d="M140.871 0.0124512C142.749 0.0124512 144.281 0.532394 145.463 1.57228C146.645 2.61217 147.236 3.96722 147.236 5.63567C147.236 6.76993 146.943 7.75996 146.357 8.60398C145.771 9.44799 144.9 10.1139 143.746 10.6001C144.386 10.9437 144.952 11.4102 145.449 12.0032C145.946 12.5944 146.56 13.5915 147.293 14.9929C148.515 17.4163 149.421 19.0847 150.012 20H145.705C145.41 19.562 145.009 18.8604 144.503 17.8971C143.397 15.771 142.585 14.3376 142.071 13.5986C141.556 12.8597 141.059 12.3344 140.582 12.0246C140.105 11.7147 139.557 11.5206 138.937 11.5206H134.062V20.0018H130.023V0.0124512H140.867H140.871ZM139.998 8.53987C141.01 8.53987 141.804 8.28702 142.381 7.78133C142.958 7.27563 143.246 6.58474 143.246 5.7069C143.246 4.82905 142.959 4.10611 142.388 3.65383C141.816 3.20155 141.001 2.97363 139.941 2.97363H134.065V8.53987H139.998Z" fill="#000000"/>
<path d="M158.85 7.16423e-05C160.712 7.16423e-05 162.388 0.416738 163.876 1.24829C165.365 2.08162 166.551 3.28177 167.434 4.84872C168.317 6.41745 168.761 8.13575 168.761 10.0054C168.761 11.8751 168.33 13.5204 167.466 15.0784C166.604 16.6365 165.42 17.8473 163.914 18.7073C162.407 19.5674 160.71 19.9983 158.823 19.9983C156.936 19.9983 155.269 19.5603 153.746 18.686C152.224 17.8117 151.038 16.608 150.189 15.0784C149.339 13.5489 148.914 11.8573 148.914 10.0054C148.914 8.15356 149.338 6.54031 150.189 4.96802C151.038 3.39573 152.21 2.17422 153.702 1.30349C155.196 0.434545 156.911 -0.00170898 158.85 -0.00170898V7.16423e-05ZM152.505 10.0072C152.505 11.3017 152.776 12.4645 153.316 13.4972C153.857 14.53 154.608 15.3313 155.573 15.8975C156.538 16.4655 157.63 16.7486 158.85 16.7486C160.694 16.7486 162.212 16.1219 163.399 14.8647C164.587 13.6076 165.182 11.989 165.182 10.0072C165.182 8.71446 164.915 7.54815 164.379 6.51182C163.843 5.47372 163.086 4.67244 162.114 4.10442C161.14 3.5364 160.043 3.25328 158.825 3.25328C157.607 3.25328 156.51 3.53996 155.536 4.11154C154.562 4.68312 153.814 5.4844 153.291 6.51182C152.767 7.53925 152.505 8.70556 152.505 10.0072Z" fill="#000000"/>
<path d="M117.213 11.2304V16.8554L128.396 16.8038L128.389 20L113.25 19.9893L113.243 0.0854492H128.429L128.413 3.26387H117.212V8.04485" fill="#000000"/>
<path d="M92.9915 8.45801H157.05V11.6435H92.9915" fill="#000000"/>
<path d="M156.25 5.02856V14.9164L162.329 9.97158L156.25 5.02856Z" fill="#000000"/>
</g>
<defs>
<clipPath id="clip0_501_4614">
<rect width="168.759" height="20" fill="white"/>
</clipPath>
</defs>
</svg>

